<?xml version="1.0" encoding="UTF-8" standalone="no"?>
<!DOCTYPE svg PUBLIC "-//W3C//DTD SVG 1.1//EN"
 "http://www.w3.org/Graphics/SVG/1.1/DTD/svg11.dtd">
<!-- Generated by graphviz version 12.2.1 (20241206.2353)
 -->
<!-- Pages: 1 -->
<svg width="430pt" height="332pt"
 viewBox="0.00 0.00 429.75 332.00" xmlns="http://www.w3.org/2000/svg" xmlns:xlink="http://www.w3.org/1999/xlink">
<g id="graph0" class="graph" transform="scale(1 1) rotate(0) translate(4 328)">
<polygon fill="white" stroke="none" points="-4,4 -4,-328 425.75,-328 425.75,4 -4,4"/>
<!-- 1544302934496998712 -->
<g id="node1" class="node">
<title>1544302934496998712</title>
<polygon fill="none" stroke="black" points="320.5,-324 101.25,-324 101.25,-288 320.5,-288 320.5,-324"/>
<text text-anchor="middle" x="210.88" y="-297.5" font-family="Helvetica,sans-Serif" font-size="20.00">Count(DropDuplicates)</text>
</g>
<!-- 4063120437206960814 -->
<g id="node2" class="node">
<title>4063120437206960814</title>
<polygon fill="none" stroke="black" points="338.5,-252 83.25,-252 83.25,-216 338.5,-216 338.5,-252"/>
<text text-anchor="middle" x="210.88" y="-225.5" font-family="Helvetica,sans-Serif" font-size="20.00">DropDuplicates(Projection)</text>
</g>
<!-- 4063120437206960814&#45;&gt;1544302934496998712 -->
<g id="edge1" class="edge">
<title>4063120437206960814&#45;&gt;1544302934496998712</title>
<path fill="none" stroke="black" d="M210.88,-252.3C210.88,-259.59 210.88,-268.27 210.88,-276.46"/>
<polygon fill="black" stroke="black" points="207.38,-276.38 210.88,-286.38 214.38,-276.38 207.38,-276.38"/>
</g>
<!-- &#45;2319976959830521346 -->
<g id="node3" class="node">
<title>&#45;2319976959830521346</title>
<polygon fill="none" stroke="black" points="413.5,-180 8.25,-180 8.25,-144 413.5,-144 413.5,-180"/>
<text text-anchor="middle" x="210.88" y="-153.5" font-family="Helvetica,sans-Serif" font-size="20.00">Projection(ArrowStringConversion, track_id)</text>
</g>
<!-- &#45;2319976959830521346&#45;&gt;4063120437206960814 -->
<g id="edge2" class="edge">
<title>&#45;2319976959830521346&#45;&gt;4063120437206960814</title>
<path fill="none" stroke="black" d="M210.88,-180.3C210.88,-187.59 210.88,-196.27 210.88,-204.46"/>
<polygon fill="black" stroke="black" points="207.38,-204.38 210.88,-214.38 214.38,-204.38 207.38,-204.38"/>
</g>
<!-- 6981519824444434915 -->
<g id="node4" class="node">
<title>6981519824444434915</title>
<polygon fill="none" stroke="black" points="421.75,-108 0,-108 0,-72 421.75,-72 421.75,-108"/>
<text text-anchor="middle" x="210.88" y="-81.5" font-family="Helvetica,sans-Serif" font-size="20.00">ArrowStringConversion(FromMapProjectable)</text>
</g>
<!-- 6981519824444434915&#45;&gt;&#45;2319976959830521346 -->
<g id="edge3" class="edge">
<title>6981519824444434915&#45;&gt;&#45;2319976959830521346</title>
<path fill="none" stroke="black" d="M210.88,-108.3C210.88,-115.59 210.88,-124.27 210.88,-132.46"/>
<polygon fill="black" stroke="black" points="207.38,-132.38 210.88,-142.38 214.38,-132.38 207.38,-132.38"/>
</g>
<!-- 5751416194491535758 -->
<g id="node5" class="node">
<title>5751416194491535758</title>
<polygon fill="none" stroke="black" points="311.88,-36 109.88,-36 109.88,0 311.88,0 311.88,-36"/>
<text text-anchor="middle" x="210.88" y="-9.5" font-family="Helvetica,sans-Serif" font-size="20.00">FromMapProjectable</text>
</g>
<!-- 5751416194491535758&#45;&gt;6981519824444434915 -->
<g id="edge4" class="edge">
<title>5751416194491535758&#45;&gt;6981519824444434915</title>
<path fill="none" stroke="black" d="M210.88,-36.3C210.88,-43.59 210.88,-52.27 210.88,-60.46"/>
<polygon fill="black" stroke="black" points="207.38,-60.38 210.88,-70.38 214.38,-60.38 207.38,-60.38"/>
</g>
</g>
</svg>
